<svg xmlns="http://www.w3.org/2000/svg" viewBox="0 0 100 100">
  <!-- Cat head -->
  <ellipse cx="50" cy="55" rx="35" ry="32" fill="#1a1a1a"/>

  <!-- Left ear -->
  <polygon points="20,35 15,5 38,25" fill="#1a1a1a"/>
  <polygon points="22,30 20,12 34,26" fill="#ff9999"/>

  <!-- Right ear -->
  <polygon points="80,35 85,5 62,25" fill="#1a1a1a"/>
  <polygon points="78,30 80,12 66,26" fill="#ff9999"/>

  <!-- Left eye -->
  <ellipse cx="35" cy="50" rx="10" ry="12" fill="#2ecc71"/>
  <ellipse cx="37" cy="50" rx="4" ry="8" fill="#1a1a1a"/>
  <circle cx="33" cy="46" r="2" fill="white"/>

  <!-- Right eye -->
  <ellipse cx="65" cy="50" rx="10" ry="12" fill="#2ecc71"/>
  <ellipse cx="67" cy="50" rx="4" ry="8" fill="#1a1a1a"/>
  <circle cx="63" cy="46" r="2" fill="white"/>

  <!-- Nose -->
  <ellipse cx="50" cy="65" rx="5" ry="4" fill="#ff6b6b"/>

  <!-- Mouth -->
  <path d="M50 69 Q45 76 40 72" stroke="#1a1a1a" stroke-width="2" fill="none"/>
  <path d="M50 69 Q55 76 60 72" stroke="#1a1a1a" stroke-width="2" fill="none"/>

  <!-- Whiskers left -->
  <line x1="15" y1="58" x2="30" y2="62" stroke="#555" stroke-width="1.5"/>
  <line x1="15" y1="65" x2="30" y2="65" stroke="#555" stroke-width="1.5"/>
  <line x1="15" y1="72" x2="30" y2="68" stroke="#555" stroke-width="1.5"/>

  <!-- Whiskers right -->
  <line x1="85" y1="58" x2="70" y2="62" stroke="#555" stroke-width="1.5"/>
  <line x1="85" y1="65" x2="70" y2="65" stroke="#555" stroke-width="1.5"/>
  <line x1="85" y1="72" x2="70" y2="68" stroke="#555" stroke-width="1.5"/>
</svg>